<svg width="24" height="24" viewBox="0 0 24 24" fill="none" xmlns="http://www.w3.org/2000/svg">
<g id="Fill=ON">
<mask id="mask0_152_23566" style="mask-type:alpha" maskUnits="userSpaceOnUse" x="0" y="0" width="24" height="24">
<rect id="Bounding box" width="24" height="24" fill="#D9D9D9"/>
</mask>
<g mask="url(#mask0_152_23566)">
<path id="vpn_key_alert" d="M7 14C7.55 14 8.02083 13.8042 8.4125 13.4125C8.80417 13.0208 9 12.55 9 12C9 11.45 8.80417 10.9792 8.4125 10.5875C8.02083 10.1958 7.55 10 7 10C6.45 10 5.97917 10.1958 5.5875 10.5875C5.19583 10.9792 5 11.45 5 12C5 12.55 5.19583 13.0208 5.5875 13.4125C5.97917 13.8042 6.45 14 7 14ZM22 18C21.7167 18 21.4792 17.9042 21.2875 17.7125C21.0958 17.5208 21 17.2833 21 17C21 16.7167 21.0958 16.4792 21.2875 16.2875C21.4792 16.0958 21.7167 16 22 16C22.2833 16 22.5208 16.0958 22.7125 16.2875C22.9042 16.4792 23 16.7167 23 17C23 17.2833 22.9042 17.5208 22.7125 17.7125C22.5208 17.9042 22.2833 18 22 18ZM21 14V9H23V14H21ZM7 18C5.33333 18 3.91667 17.4167 2.75 16.25C1.58333 15.0833 1 13.6667 1 12C1 10.3333 1.58333 8.91667 2.75 7.75C3.91667 6.58333 5.33333 6 7 6C8.35 6 9.52917 6.37917 10.5375 7.1375C11.5458 7.89583 12.25 8.85 12.65 10H19V18H17V14H12.65C12.25 15.15 11.5458 16.1042 10.5375 16.8625C9.52917 17.6208 8.35 18 7 18Z" fill="#1C1B1F"/>
</g>
</g>
</svg>
